<?xml version="1.0" encoding="UTF-8"?>
<svg id="Layer_3" data-name="Layer 3" xmlns="http://www.w3.org/2000/svg" viewBox="0 0 536.87 58.52">
  <defs>
    <style>
      .cls-1 {
        fill: #69c8c3;
      }
    </style>
  </defs>
  <polygon class="cls-1" points="243.65 21.72 243.48 22.88 241.98 29.22 242.32 29.55 245.08 29.55 245.42 29.22 243.82 22.88 243.65 21.72"/>
  <polygon class="cls-1" points="265.42 22.38 262.92 22.38 262.59 22.72 262.59 26.72 262.92 27.05 265.42 27.05 266.76 26.38 267.43 25.05 267.43 24.38 266.76 23.05 265.42 22.38"/>
  <polygon class="cls-1" points="286.93 22.38 284.77 22.38 284.43 22.72 284.43 33.05 284.93 33.55 286.93 33.55 288.5 32.79 289.27 31.22 289.27 24.72 288.5 23.15 286.93 22.38"/>
  <polygon class="cls-1" points="317.11 22.38 314.61 22.38 314.28 22.72 314.28 26.72 314.61 27.05 317.11 27.05 318.45 26.38 319.11 25.05 319.11 24.38 318.45 23.05 317.11 22.38"/>
  <polygon class="cls-1" points="203.4 25.55 204.4 25.05 204.8 24.22 204.8 23.38 204.4 22.55 203.4 22.05 200.9 22.05 200.57 22.38 200.57 25.22 200.9 25.55 203.4 25.55"/>
  <polygon class="cls-1" points="337.12 22.38 334.62 22.38 334.29 22.72 334.29 26.72 334.62 27.05 337.12 27.05 338.45 26.38 339.12 25.05 339.12 24.38 338.45 23.05 337.12 22.38"/>
  <polygon class="cls-1" points="139.11 21.72 138.94 22.88 137.44 29.22 137.77 29.55 140.54 29.55 140.88 29.22 139.28 22.88 139.11 21.72"/>
  <polygon class="cls-1" points="203.23 29.89 200.9 29.89 200.57 30.22 200.57 33.39 201.07 33.89 203.23 33.89 204.57 33.22 205 32.39 205 31.39 204.57 30.55 203.23 29.89"/>
  <polygon class="cls-1" points="224.24 22.38 222.57 22.38 221.34 22.98 220.74 24.22 220.74 31.72 221.34 32.95 222.57 33.55 224.24 33.55 225.48 32.95 226.08 31.72 226.08 24.22 225.48 22.98 224.24 22.38"/>
  <polygon class="cls-1" points="80.19 22.38 78.52 22.38 77.28 22.98 76.68 24.22 76.68 31.72 77.28 32.95 78.52 33.55 80.19 33.55 81.42 32.95 82.02 31.72 82.02 24.22 81.42 22.98 80.19 22.38"/>
  <path class="cls-1" d="M31.63,0L0,57.07l493.04,1.45L536.87,0H31.63Zm34.71,38.56h-8.67l-4.33-4.33v-12.34l4.33-4.33h8.34l2.1,6.34-3.5-1.17h-2.37l-1.67,.83-.9,1.83v5.5l.9,1.83,1.67,.83h2.67l3.5-1.17-2.07,6.17Zm21.84-4l-4,4h-9.67l-4-4v-13.01l4-4h9.67l4,4v13.01Zm21.34-14.67v18.67h-4.17l-6.67-11-.67-1.33,.17,1.33v8.67l.77,2.33h-6.7l.77-2.33V19.88l-.93-2.33h6.6l5.34,8.84,.67,1.33-.17-1.33v-6.5l-.77-2.33h6.54l-.77,2.33Zm15.41,18.67h-7.8l.9-2.67v-13l-.33-.33h-2.4l-3.17,1.07,2.07-6.07h13.67l2.07,6.07-3.17-1.07h-2.4l-.33,.33v13l.9,2.67Zm17.27,0l.33-2.33-.43-1.83-.33-.33h-5.17l-.33,.33-.4,1.83,.33,2.33h-7.27l1.2-2.33,4.4-16.67-.5-2h10.67l-.5,2,4.4,16.67,1.17,2.33h-7.57Zm21.84,0h-8.67l-4.33-4.33v-12.34l4.33-4.33h8.34l2.1,6.34-3.5-1.17h-2.37l-1.67,.83-.9,1.83v5.5l.9,1.83,1.67,.83h2.67l3.5-1.17-2.07,6.17Zm16.57-16.01h-2.4l-.33,.33v13l.9,2.67h-7.8l.9-2.67v-13l-.33-.33h-2.4l-3.17,1.07,2.07-6.07h13.67l2.07,6.07-3.17-1.07Zm30.61,12.34l-3.67,3.67h-13.61l.77-2.33V19.88l-.77-2.33h13.61l3.33,3.33v4l-2.33,2.33,2.67,2.67v5Zm21.01-.33l-4,4h-9.67l-4-4v-13.01l4-4h9.67l4,4v13.01Zm14.51,4l.33-2.33-.43-1.83-.33-.33h-5.17l-.33,.33-.4,1.83,.33,2.33h-7.27l1.2-2.33,4.4-16.67-.5-2h10.67l-.5,2,4.4,16.67,1.17,2.33h-7.57Zm20.74,0l-2.23-6.67-.67-.33h-1.67l-.33,.33v4.33l.77,2.33h-7.37l.77-2.33V19.88l-.77-2.33h13.44l4,4v5.67l-2.83,2.83,2.17,5.67,1.67,2.83h-6.94Zm27.78-4.33l-4.33,4.33h-13.27l.77-2.33V19.88l-.77-2.33h13.27l4.33,4.33v12.34Zm29.85-7l-4.34,4.33h-6.17l-.33,.33v4.17l.83,2.5h-7.44l.77-2.33V19.88l-.77-2.33h13.44l4,4v5.67Zm14.07,11.34l-2.23-6.67-.67-.33h-1.67l-.33,.33v4.33l.77,2.33h-7.37l.77-2.33V19.88l-.77-2.33h13.44l4,4v5.67l-2.83,2.83,2.17,5.67,1.67,2.83h-6.94Zm23.61,0h-13.44l.77-2.33V19.88l-.77-2.33h12.94l1.9,5.74-2.73-.9h-5.17l-.33,.33v2l.33,.33h2l2.17-.73v6.3l-2.17-.73h-2l-.33,.33v2.83l.5,.5h5.34l3-1-2,6Zm10.64-13.54l4.94,1.03,2.77,2.77v5.74l-4,4h-9.17l-2-6,3.1,1h4.57l.9-.47,.43-.87v-1.2l-.77-.73-4.8-1-2.77-2.73v-5l4-4h8.57l1.93,5.74-2.73-.9h-4.27l-.9,.47-.43,.87v.67l.63,.63Zm18.81,13.54h-7.54l.77-2.33V19.88l-.77-2.33h7.54l-.77,2.33v16.34l.77,2.33Zm21.74-4.33l-4.34,4.33h-13.27l.77-2.33V19.88l-.77-2.33h13.27l4.34,4.33v12.34Zm17.51,4.33h-13.44l.77-2.33V19.88l-.77-2.33h12.94l1.9,5.74-2.73-.9h-5.17l-.33,.33v2l.33,.33h2l2.17-.73v6.3l-2.17-.73h-2l-.33,.33v2.83l.5,.5h5.34l3-1-2,6Zm21.51-18.67v18.67h-4.17l-6.67-11-.67-1.33,.17,1.33v8.67l.77,2.33h-6.7l.77-2.33V19.88l-.93-2.33h6.6l5.34,8.84,.67,1.33-.17-1.33v-6.5l-.77-2.33h6.54l-.77,2.33Zm17.24,2.67h-2.4l-.33,.33v13l.9,2.67h-7.8l.9-2.67v-13l-.33-.33h-2.4l-3.17,1.07,2.07-6.07h13.67l2.07,6.07-3.17-1.07Z"/>
  <polygon class="cls-1" points="405.65 22.38 403.48 22.38 403.15 22.72 403.15 33.05 403.65 33.55 405.65 33.55 407.22 32.79 407.98 31.22 407.98 24.72 407.22 23.15 405.65 22.38"/>
</svg>