<?xml version="1.0" encoding="UTF-8"?>
<svg id="Layer_3" data-name="Layer 3" xmlns="http://www.w3.org/2000/svg" viewBox="0 0 536.87 58.52">
  <defs>
    <style>
      .cls-1 {
        fill: #69c8c3;
      }
    </style>
  </defs>
  <g id="Layer_4" data-name="Layer 4">
    <g>
      <polygon class="cls-1" points="292.32 21.68 292.16 22.85 290.49 30.02 290.82 30.35 293.82 30.35 294.16 30.02 292.49 22.85 292.32 21.68"/>
      <polygon class="cls-1" points="402.97 22.18 401.3 22.18 399.97 22.85 399.3 24.18 399.3 32.85 399.97 34.19 401.3 34.86 402.97 34.86 404.3 34.19 404.97 32.85 404.97 24.18 404.3 22.85 402.97 22.18"/>
      <polygon class="cls-1" points="423.87 21.68 423.71 22.85 422.04 30.02 422.37 30.35 425.38 30.35 425.71 30.02 424.04 22.85 423.87 21.68"/>
      <polygon class="cls-1" points="137.43 21.68 137.26 22.85 135.59 30.02 135.93 30.35 138.93 30.35 139.26 30.02 137.6 22.85 137.43 21.68"/>
      <polygon class="cls-1" points="379.96 30.69 377.29 30.69 376.96 31.02 376.96 34.69 377.46 35.19 379.96 35.19 381.29 34.52 381.79 33.52 381.79 32.35 381.29 31.35 379.96 30.69"/>
      <polygon class="cls-1" points="74.67 22.18 73 22.18 71.67 22.85 71 24.18 71 32.85 71.67 34.19 73 34.86 74.67 34.86 76.01 34.19 76.67 32.85 76.67 24.18 76.01 22.85 74.67 22.18"/>
      <polygon class="cls-1" points="380.12 25.69 381.13 25.18 381.63 24.18 381.63 23.52 381.13 22.52 380.12 22.02 377.29 22.02 376.96 22.35 376.96 25.35 377.29 25.69 380.12 25.69"/>
      <path class="cls-1" d="M31.63,0L0,57.07l493.04,1.45L536.87,0H31.63Zm28.03,40.36h-9.34l-4.67-4.67v-14.01l4.67-4.67h9l2.27,6.84-4-1.33h-2.27l-2,1-.83,1.67v7l.83,1.67,2,1h2.6l4-1.33-2.27,6.84Zm23.68-4.33l-4.33,4.33h-10.34l-4.33-4.33v-14.67l4.33-4.33h10.34l4.33,4.33v14.67Zm23.01-16.34v20.67h-4.5l-7.34-12.34-.67-1.67,.17,1.67v9.67l.83,2.67h-7.34l.83-2.67V19.68l-1-2.67h7.17l5.84,9.84,.67,1.67-.17-1.67v-7.17l-.83-2.67h7.17l-.83,2.67Zm16.67,20.67h-8.84l1.17-3.5v-14.01l-.33-.33h-2.6l-3.47,1.17,2.23-6.67h14.84l2.23,6.67-3.47-1.17h-2.6l-.33,.33v14.01l1.17,3.5Zm17.67,0l.33-2.67-.5-2-.33-.33h-5.5l-.33,.33-.5,2,.33,2.67h-7.67l1.33-2.67,4.67-18.51-.5-2.17h11.34l-.5,2.17,4.67,18.51,1.33,2.67h-8.17Zm23.51,0h-9.34l-4.67-4.67v-14.01l4.67-4.67h9l2.27,6.84-4-1.33h-2.27l-2,1-.83,1.67v7l.83,1.67,2,1h2.6l4-1.33-2.27,6.84Zm18.11-17.84h-2.6l-.33,.33v14.01l1.17,3.5h-8.84l1.17-3.5v-14.01l-.33-.33h-2.6l-3.47,1.17,2.23-6.67h14.84l2.23,6.67-3.47-1.17Zm26.84,0h-2.6l-.33,.33v14.01l1.17,3.5h-8.84l1.17-3.5v-14.01l-.33-.33h-2.6l-3.47,1.17,2.23-6.67h14.84l2.23,6.67-3.47-1.17Zm24.24,17.84h-8l.83-2.67v-6.67l-.33-.33h-4l-.33,.33v6.67l.83,2.67h-8l.83-2.67V19.68l-.83-2.67h8l-.83,2.67v5l.33,.33h4l.33-.33v-5l-.83-2.67h8l-.83,2.67v18.01l.83,2.67Zm18.84,0h-14.51l.83-2.67V19.68l-.83-2.67h14.01l2.1,6.34-2.93-1h-5.74l-.27,.33v2.33l.33,.33h2.17l2.5-.83v7l-2.5-.83h-2.17l-.33,.33v3.17l.5,.5h5.6l3.5-1.17-2.27,6.84Zm19.84-15.17l5.17,1.17,3.17,3.17v6.5l-4.33,4.33h-9.84l-2.27-6.84,3.5,1.17h4.77l1-.5,.5-1v-1.33l-.83-.83-5.17-1.17-3-3v-5.5l4.33-4.33h9.34l2.1,6.34-2.87-1h-4.74l-1,.5-.5,1v.67l.67,.67Zm23.51,15.17l.33-2.67-.5-2-.33-.33h-5.5l-.33,.33-.5,2,.33,2.67h-7.67l1.33-2.67,4.67-18.51-.5-2.17h11.34l-.5,2.17,4.67,18.51,1.33,2.67h-8.17Zm24.68-20.67l-5.83,11.67v5.5l1.17,3.5h-8.67l1.17-3.5v-5.17l-6-12-1.83-2.67h8.17l.33,2.33,2.5,5,.33,1,.33-1,2.5-5,.33-2.33h7.34l-1.83,2.67Zm17.34,5.5l5.17,1.17,3.17,3.17v6.5l-4.33,4.33h-9.84l-2.27-6.84,3.5,1.17h4.77l1-.5,.5-1v-1.33l-.83-.83-5.17-1.17-3-3v-5.5l4.33-4.33h9.34l2.1,6.34-2.87-1h-4.74l-1,.5-.5,1v.67l.67,.67Zm19.77,15.17h-7.54l.77-2.33V21.68l-.77-2.33h7.54l-.77,2.33v16.34l.77,2.33Zm-5.35-22.55l-1.05-.57v-.41l2.52-5.19,1.97-.97,1.93,1.87-5.35,5.27Zm36.6,18.55l-4,4h-14.84l.83-2.67V19.68l-.83-2.67h14.84l3.67,3.67v4.5l-2.5,2.5,2.84,2.83v5.84Zm23.01-.33l-4.33,4.33h-10.34l-4.33-4.33v-14.67l4.33-4.33h10.34l4.33,4.33v14.67Zm15.51,4.33l.33-2.67-.5-2-.33-.33h-5.5l-.33,.33-.5,2,.33,2.67h-7.67l1.33-2.67,4.67-18.51-.5-2.17h11.34l-.5,2.17,4.67,18.51,1.33,2.67h-8.17Zm22.18,0l-2.5-7.5-.67-.33h-1.83l-.33,.33v4.83l.83,2.67h-8l.83-2.67V19.68l-.83-2.67h14.51l4.33,4.33v6.5l-3,3,2.33,6.34,1.83,3.17h-7.5Zm29.68-4.67l-4.67,4.67h-14.51l.83-2.67V19.68l-.83-2.67h14.51l4.67,4.67v14.01Z"/>
      <polygon class="cls-1" points="469.83 22.18 467.66 22.18 467.33 22.52 467.33 34.36 467.83 34.86 469.83 34.86 471.49 34.02 472.33 32.35 472.33 24.68 471.49 23.02 469.83 22.18"/>
      <polygon class="cls-1" points="447.15 22.35 444.32 22.35 443.98 22.68 443.98 26.85 444.32 27.19 447.15 27.19 448.49 26.52 449.15 25.18 449.15 24.35 448.49 23.02 447.15 22.35"/>
    </g>
  </g>
</svg>