<?xml version="1.0" encoding="UTF-8"?>
<svg id="Layer_3" data-name="Layer 3" xmlns="http://www.w3.org/2000/svg" viewBox="0 0 536.87 58.52">
  <defs>
    <style>
      .cls-1 {
        fill: #69c8c3;
      }
    </style>
  </defs>
  <polygon class="cls-1" points="276.47 22.37 275.02 22.37 273.86 22.95 273.28 24.11 273.28 31.66 273.86 32.82 275.02 33.4 276.47 33.4 277.63 32.82 278.21 31.66 278.21 24.11 277.63 22.95 276.47 22.37"/>
  <polygon class="cls-1" points="233.1 22.52 230.63 22.52 230.34 22.81 230.34 26.44 230.63 26.73 233.1 26.73 234.26 26.15 234.84 24.99 234.84 24.26 234.26 23.1 233.1 22.52"/>
  <polygon class="cls-1" points="446.91 25.42 447.78 24.99 448.21 24.11 448.21 23.53 447.78 22.66 446.91 22.23 444.44 22.23 444.15 22.52 444.15 25.13 444.44 25.42 446.91 25.42"/>
  <polygon class="cls-1" points="193.06 22.37 191.61 22.37 190.45 22.95 189.87 24.11 189.87 31.66 190.45 32.82 191.61 33.4 193.06 33.4 194.22 32.82 194.8 31.66 194.8 24.11 194.22 22.95 193.06 22.37"/>
  <polygon class="cls-1" points="117.98 21.94 117.83 22.95 116.38 29.19 116.67 29.48 119.28 29.48 119.57 29.19 118.12 22.95 117.98 21.94"/>
  <polygon class="cls-1" points="63.38 22.37 61.93 22.37 60.77 22.95 60.19 24.11 60.19 31.66 60.77 32.82 61.93 33.4 63.38 33.4 64.54 32.82 65.12 31.66 65.12 24.11 64.54 22.95 63.38 22.37"/>
  <polygon class="cls-1" points="483.46 22.52 481 22.52 480.71 22.81 480.71 26.44 481 26.73 483.46 26.73 484.62 26.15 485.2 24.99 485.2 24.26 484.62 23.1 483.46 22.52"/>
  <path class="cls-1" d="M31.63,0L0,57.07l493.04,1.45L536.87,0H31.63Zm18.69,38.19h-8.12l-4.06-4.06v-12.19l4.06-4.06h7.83l1.97,5.95-3.48-1.16h-1.97l-1.74,.87-.73,1.45v6.09l.73,1.45,1.74,.87h2.26l3.48-1.16-1.97,5.95Zm20.6-3.77l-3.77,3.77h-8.99l-3.77-3.77v-12.77l3.77-3.77h8.99l3.77,3.77v12.77Zm20.02-14.22v17.99h-3.92l-6.38-10.73-.58-1.45,.15,1.45v8.41l.73,2.32h-6.38l.73-2.32v-15.67l-.87-2.32h6.24l5.08,8.56,.58,1.45-.15-1.45v-6.24l-.73-2.32h6.24l-.73,2.32Zm14.5,17.99h-7.69l1.02-3.05v-12.18l-.29-.29h-2.26l-3.02,1.02,1.94-5.8h12.91l1.94,5.8-3.02-1.02h-2.26l-.29,.29v12.18l1.02,3.05Zm15.38,0l.29-2.32-.44-1.74-.29-.29h-4.79l-.29,.29-.44,1.74,.29,2.32h-6.67l1.16-2.32,4.06-16.1-.44-1.89h9.86l-.44,1.89,4.06,16.1,1.16,2.32h-7.11Zm20.45,0h-8.12l-4.06-4.06v-12.19l4.06-4.06h7.83l1.97,5.95-3.48-1.16h-1.97l-1.74,.87-.73,1.45v6.09l.73,1.45,1.74,.87h2.26l3.48-1.16-1.97,5.95Zm15.75-15.52h-2.26l-.29,.29v12.18l1.02,3.05h-7.69l1.02-3.05v-12.18l-.29-.29h-2.26l-3.02,1.02,1.94-5.8h12.91l1.94,5.8-3.02-1.02Zm21.38,15.52h-7.54l1.02-3.05v-4.5l-5.22-10.44-1.6-2.32h7.11l.29,2.03,2.18,4.35,.29,.87,.29-.87,2.18-4.35,.29-2.03h6.38l-1.6,2.32-5.08,10.15v4.79l1.02,3.05Zm22.19-3.77l-3.77,3.77h-8.99l-3.77-3.77v-12.77l3.77-3.77h8.99l3.77,3.77v12.77Zm19.73,0l-3.77,3.77h-8.56l-3.77-3.77,.29-1.45v-12.77l-.73-2.32h7.11l-.73,2.32v11.46l.58,1.16,1.16,.58h1.16l1.16-.58,.58-1.16v-11.46l-.73-2.32h6.67l-.73,2.32v12.77l.29,1.45Zm14.65,3.77l-2.18-6.53-.58-.29h-1.6l-.29,.29v4.21l.73,2.32h-6.96l.73-2.32v-15.67l-.73-2.32h12.62l3.77,3.77v5.66l-2.61,2.61,2.03,5.51,1.6,2.76h-6.53Zm28.43,0h-8.12l-4.06-4.06v-12.19l4.06-4.06h7.83l1.97,5.95-3.48-1.16h-1.97l-1.74,.87-.73,1.45v6.09l.73,1.45,1.74,.87h2.26l3.48-1.16-1.97,5.95Zm20.6-3.77l-3.77,3.77h-8.99l-3.77-3.77v-12.77l3.77-3.77h8.99l3.77,3.77v12.77Zm19.73,0l-3.77,3.77h-8.56l-3.77-3.77,.29-1.45v-12.77l-.73-2.32h7.11l-.73,2.32v11.46l.58,1.16,1.16,.58h1.16l1.16-.58,.58-1.16v-11.46l-.72-2.32h6.67l-.72,2.32v12.77l.29,1.45Zm20.16-14.22v17.99h-3.92l-6.38-10.73-.58-1.45,.15,1.45v8.41l.73,2.32h-6.38l.73-2.32v-15.67l-.87-2.32h6.24l5.08,8.56,.58,1.45-.15-1.45v-6.24l-.73-2.32h6.24l-.73,2.32Zm16.54,17.99h-8.12l-4.06-4.06v-12.19l4.06-4.06h7.83l1.97,5.95-3.48-1.16h-1.97l-1.74,.87-.72,1.45v6.09l.72,1.45,1.74,.87h2.26l3.48-1.16-1.97,5.95Zm11.31,0h-7.11l.73-2.32v-15.67l-.73-2.32h7.11l-.72,2.32v15.67l.72,2.32Zm15.67,0h-11.89l.73-2.32v-15.67l-.73-2.32h7.25l-.87,2.61v12.33l.43,.44h4.06l2.99-1.02-1.97,5.95Zm24.8,0h-6.82l.73-2.32v-8.99l.14-1.16-.43,1.16-4.64,11.31h-.14l-4.64-11.31-.44-1.16,.14,1.16v8.99l.73,2.32h-6.24l.73-2.32v-15.67l-.73-2.32h7.25l3.34,8.18,.15,.67,.14-.67,3.34-8.18h7.4l-.72,2.32v15.67l.72,2.32Zm16.39,0h-12.62l.73-2.32v-15.67l-.73-2.32h12.18l1.83,5.51-2.55-.87h-4.99l-.23,.29v2.03l.29,.29h1.89l2.18-.73v6.09l-2.18-.73h-1.89l-.29,.29v2.76l.44,.44h4.87l3.05-1.02-1.97,5.95Zm25.53,0h-6.82l.73-2.32v-8.99l.14-1.16-.43,1.16-4.64,11.31h-.14l-4.64-11.31-.44-1.16,.14,1.16v8.99l.73,2.32h-6.24l.73-2.32v-15.67l-.73-2.32h7.25l3.34,8.18,.15,.67,.14-.67,3.34-8.18h7.4l-.72,2.32v15.67l.72,2.32Zm20.16-3.48l-3.48,3.48h-12.91l.73-2.32v-15.67l-.73-2.32h12.91l3.19,3.19v3.92l-2.18,2.18,2.47,2.47v5.08Zm16.25,3.48h-12.62l.73-2.32v-15.67l-.73-2.32h12.18l1.83,5.51-2.55-.87h-4.99l-.23,.29v2.03l.29,.29h1.89l2.18-.73v6.09l-2.18-.73h-1.89l-.29,.29v2.76l.44,.44h4.87l3.05-1.02-1.97,5.95Zm14.79,0l-2.18-6.53-.58-.29h-1.6l-.29,.29v4.21l.73,2.32h-6.96l.73-2.32v-15.67l-.73-2.32h12.62l3.77,3.77v5.66l-2.61,2.61,2.03,5.51,1.6,2.76h-6.53Z"/>
  <polygon class="cls-1" points="446.76 29.77 444.44 29.77 444.15 30.06 444.15 33.25 444.59 33.69 446.76 33.69 447.92 33.11 448.36 32.24 448.36 31.22 447.92 30.35 446.76 29.77"/>
</svg>