<?xml version="1.0" encoding="UTF-8"?>
<svg id="Layer_1" data-name="Layer 1" xmlns="http://www.w3.org/2000/svg" viewBox="0 0 536.87 58.52">
  <defs>
    <style>
      .cls-1 {
        fill: #69c8c3;
      }
    </style>
  </defs>
  <polygon class="cls-1" points="296.24 21.88 296.07 23.05 294.41 30.22 294.74 30.55 297.74 30.55 298.07 30.22 296.41 23.05 296.24 21.88"/>
  <polygon class="cls-1" points="195.8 22.38 194.13 22.38 192.8 23.05 192.13 24.38 192.13 33.05 192.8 34.39 194.13 35.05 195.8 35.05 197.13 34.39 197.8 33.05 197.8 24.38 197.13 23.05 195.8 22.38"/>
  <polygon class="cls-1" points="422.96 21.88 422.79 23.05 421.12 30.22 421.46 30.55 424.46 30.55 424.79 30.22 423.12 23.05 422.96 21.88"/>
  <polygon class="cls-1" points="218.98 22.55 216.14 22.55 215.81 22.88 215.81 27.05 216.14 27.38 218.98 27.38 220.31 26.72 220.98 25.38 220.98 24.55 220.31 23.22 218.98 22.55"/>
  <polygon class="cls-1" points="380.54 22.55 377.71 22.55 377.37 22.88 377.37 27.05 377.71 27.38 380.54 27.38 381.87 26.72 382.54 25.38 382.54 24.55 381.87 23.22 380.54 22.55"/>
  <polygon class="cls-1" points="401.55 22.38 399.38 22.38 399.05 22.72 399.05 34.55 399.55 35.05 401.55 35.05 403.22 34.22 404.05 32.55 404.05 24.88 403.22 23.22 401.55 22.38"/>
  <polygon class="cls-1" points="148.61 22.55 145.78 22.55 145.45 22.88 145.45 27.05 145.78 27.38 148.61 27.38 149.95 26.72 150.62 25.38 150.62 24.55 149.95 23.22 148.61 22.55"/>
  <path class="cls-1" d="M31.63,0L0,57.07l493.04,1.45L536.87,0H31.63Zm5.1,25.38l5.17,1.17,3.17,3.17v6.5l-4.33,4.33h-9.84l-2.27-6.84,3.5,1.17h4.77l1-.5,.5-1v-1.33l-.83-.83-5.17-1.17-3-3v-5.5l4.33-4.33h9.34l2.1,6.34-2.87-1h-4.74l-1,.5-.5,1v.67l.67,.67Zm20.34,15.17h-8.17l.83-2.67V19.88l-.83-2.67h8.17l-.83,2.67v18.01l.83,2.67Zm22.51-4.33l-4.33,4.33h-9.67l-4.33-4.33v-14.34l4.67-4.67h10.67l2.27,6.84-4-1.33h-4.1l-2,1-.83,1.67v7.67l.67,1.33,1.33,.67h2.17l1-1v-3.83l-1.5-3h8.84l-1.17,2.33v5l.33,1.67Zm22.34-16.34v20.67h-4.5l-7.34-12.34-.67-1.67,.17,1.67v9.67l.83,2.67h-7.34l.83-2.67V19.88l-1-2.67h7.17l5.84,9.84,.67,1.67-.17-1.67v-7.17l-.83-2.67h7.17l-.83,2.67Zm32.01,16.34l-4.33,4.33h-9.84l-4.33-4.33,.33-1.67v-14.67l-.83-2.67h8.17l-.83,2.67v13.17l.67,1.33,1.33,.67h1.33l1.33-.67,.67-1.33v-13.17l-.83-2.67h7.67l-.83,2.67v14.67l.33,1.67Zm23.18-8.17l-4.67,4.67h-6.67l-.33,.33v4.5l1,3h-8.17l.83-2.67V19.88l-.83-2.67h14.51l4.33,4.33v6.5Zm23.94-5.5h-5.6l-.33,.33v2.67l.33,.33h2.17l2.5-.83v7l-2.5-.83h-2.17l-.33,.33v6l1,3h-8.17l.83-2.67V19.88l-.83-2.67h14.01l2.1,6.34-3-1Zm23.41,13.67l-4.33,4.33h-10.34l-4.33-4.33v-14.67l4.33-4.33h10.34l4.33,4.33v14.67Zm16.67,4.33l-2.5-7.5-.67-.33h-1.83l-.33,.33v4.83l.83,2.67h-8l.83-2.67V19.88l-.83-2.67h14.51l4.33,4.33v6.5l-3,3,2.33,6.34,1.83,3.17h-7.5Zm33.35,0h-14.51l.83-2.67V19.88l-.83-2.67h14.01l2.1,6.34-2.93-1h-5.74l-.27,.33v2.33l.33,.33h2.17l2.5-.83v7l-2.5-.83h-2.17l-.33,.33v3.17l.5,.5h5.6l3.5-1.17-2.27,6.84Zm29.34,0h-7.84l.83-2.67v-10.34l.17-1.33-.5,1.33-5.33,13.01h-.17l-5.34-13.01-.5-1.33,.17,1.33v10.34l.83,2.67h-7.17l.83-2.67V19.88l-.83-2.67h8.34l3.83,9.4,.17,.77,.17-.77,3.83-9.4h8.5l-.83,2.67v18.01l.83,2.67Zm15.67,0l.33-2.67-.5-2-.33-.33h-5.5l-.33,.33-.5,2,.33,2.67h-7.67l1.33-2.67,4.67-18.51-.5-2.17h11.34l-.5,2.17,4.67,18.51,1.33,2.67h-8.17Zm17.84,0h-8.17l.83-2.67V19.88l-.83-2.67h8.17l-.83,2.67v18.01l.83,2.67Zm18.01,0h-13.67l.83-2.67V19.88l-.83-2.67h8.34l-1,3v14.17l.5,.5h4.67l3.44-1.17-2.27,6.84Zm30.51-4.33l-4.33,4.33h-9.84l-4.33-4.33,.33-1.67v-14.67l-.83-2.67h8.17l-.83,2.67v13.17l.67,1.33,1.33,.67h1.33l1.33-.67,.67-1.33v-13.17l-.83-2.67h7.67l-.83,2.67v14.67l.33,1.67Zm23.18-8.17l-4.67,4.67h-6.67l-.33,.33v4.5l1,3h-8.17l.83-2.67V19.88l-.83-2.67h14.51l4.33,4.33v6.5Zm21.67,7.84l-4.67,4.67h-14.51l.83-2.67V19.88l-.83-2.67h14.51l4.67,4.67v14.01Zm15.51,4.67l.33-2.67-.5-2-.33-.33h-5.5l-.33,.33-.5,2,.33,2.67h-7.67l1.33-2.67,4.67-18.51-.5-2.17h11.34l-.5,2.17,4.67,18.51,1.33,2.67h-8.17Zm22.28-17.84h-2.6l-.33,.33v14.01l1.17,3.5h-8.84l1.17-3.5v-14.01l-.33-.33h-2.6l-3.47,1.17,2.23-6.67h14.84l2.23,6.67-3.47-1.17Zm19.74,17.84h-14.51l.83-2.67V19.88l-.83-2.67h14l2.1,6.34-2.93-1h-5.74l-.27,.33v2.33l.33,.33h2.17l2.5-.83v7l-2.5-.83h-2.17l-.33,.33v3.17l.5,.5h5.6l3.5-1.17-2.27,6.84Zm11.5-15.17l5.17,1.17,3.17,3.17v6.5l-4.33,4.33h-9.84l-2.27-6.84,3.5,1.17h4.77l1-.5,.5-1v-1.33l-.83-.83-5.17-1.17-3-3v-5.5l4.33-4.33h9.34l2.1,6.34-2.87-1h-4.74l-1,.5-.5,1v.67l.67,.67Zm19.01,13.67l-1.5,1.5h-3.67l-1.5-1.5v-3l1.5-1.5h3.67l1.5,1.5v3Zm-1.83-6h-3l-1.83-7.34v-7.17l1.33-1.33h4l1.33,1.33v7.17l-1.83,7.34Z"/>
</svg>