<?xml version="1.0" encoding="UTF-8"?>
<svg id="Layer_1" data-name="Layer 1" xmlns="http://www.w3.org/2000/svg" viewBox="0 0 1920 275.5">
  <defs>
    <style>
      .cls-1 {
        fill: #60cfc7;
      }
    </style>
  </defs>
  <polygon class="cls-1" points="978.73 146.18 970.05 146.18 969.03 147.23 969.03 160.35 970.05 161.4 978.73 161.4 982.81 159.3 984.86 155.1 984.86 152.48 982.81 148.28 978.73 146.18"/>
  <polygon class="cls-1" points="527.05 146.18 518.37 146.18 517.35 147.23 517.35 160.35 518.37 161.4 527.05 161.4 531.13 159.3 533.17 155.1 533.17 152.48 531.13 148.28 527.05 146.18"/>
  <polygon class="cls-1" points="671.49 145.65 666.38 145.65 662.3 147.75 660.26 151.95 660.26 179.25 662.3 183.45 666.38 185.55 671.49 185.55 675.57 183.45 677.61 179.25 677.61 151.95 675.57 147.75 671.49 145.65"/>
  <polygon class="cls-1" points="837.87 145.65 832.76 145.65 828.68 147.75 826.64 151.95 826.64 179.25 828.68 183.45 832.76 185.55 837.87 185.55 841.95 183.45 843.99 179.25 843.99 151.95 841.95 147.75 837.87 145.65"/>
  <polygon class="cls-1" points="742.43 146.18 733.75 146.18 732.73 147.23 732.73 160.35 733.75 161.4 742.43 161.4 746.51 159.3 748.55 155.1 748.55 152.48 746.51 148.28 742.43 146.18"/>
  <polygon class="cls-1" points="1636.6 146.18 1627.92 146.18 1626.9 147.23 1626.9 160.35 1627.92 161.4 1636.6 161.4 1640.68 159.3 1642.73 155.1 1642.73 152.48 1640.68 148.28 1636.6 146.18"/>
  <path class="cls-1" d="M161.26,64.5L0,270.5l1691.03,5,228.97-211H161.26Zm23.33,90.6l15.82,3.67,9.7,9.98v20.48l-13.27,13.65h-30.11l-6.94-21.52,10.72,3.67h14.6l3.06-1.57,1.53-3.15v-4.2l-2.55-2.62-15.82-3.68-9.19-9.45v-17.33l13.27-13.65h28.58l6.43,19.95-8.78-3.15h-14.5l-3.06,1.58-1.53,3.15v2.1l2.04,2.1Zm62.27,47.77h-25.01l2.55-8.4v-56.7l-2.55-8.4h25.01l-2.55,8.4v56.7l2.55,8.4Zm68.9-13.65l-13.27,13.65h-29.6l-13.27-13.65v-45.15l14.29-14.7h32.66l6.94,21.52-12.25-4.2h-12.56l-6.12,3.15-2.55,5.25v24.15l2.04,4.2,4.08,2.1h6.64l3.06-3.15v-12.07l-4.59-9.45h27.05l-3.57,7.35v15.75l1.02,5.25Zm68.39-51.45v65.1h-13.78l-22.46-38.85-2.04-5.25,.51,5.25v30.45l2.55,8.4h-22.46l2.55-8.4v-56.7l-3.06-8.4h21.95l17.86,30.98,2.04,5.25-.51-5.25v-22.58l-2.55-8.4h21.95l-2.55,8.4Zm97.99,51.45l-13.27,13.65h-30.11l-13.27-13.65,1.02-5.25v-46.2l-2.55-8.4h25.01l-2.55,8.4v41.48l2.04,4.2,4.08,2.1h4.08l4.08-2.1,2.04-4.2v-41.48l-2.55-8.4h23.48l-2.55,8.4v46.2l1.02,5.25Zm70.94-25.73l-14.29,14.7h-20.42l-1.02,1.05v14.17l3.06,9.45h-25.01l2.55-8.4v-56.7l-2.55-8.4h44.4l13.27,13.65v20.48Zm73.29-17.33h-17.15l-1.02,1.05v8.4l1.02,1.05h6.63l7.66-2.62v22.05l-7.66-2.62h-6.63l-1.02,1.05v18.9l3.06,9.45h-25.01l2.55-8.4v-56.7l-2.55-8.4h42.87l6.43,19.95-9.19-3.15Zm71.66,43.05l-13.27,13.65h-31.64l-13.27-13.65v-46.2l13.27-13.65h31.64l13.27,13.65v46.2Zm51.04,13.65l-7.66-23.62-2.04-1.05h-5.61l-1.02,1.05v15.23l2.55,8.4h-24.5l2.55-8.4v-56.7l-2.55-8.4h44.4l13.27,13.65v20.48l-9.19,9.45,7.15,19.95,5.61,9.98h-22.97Zm115.34-13.65l-13.27,13.65h-31.64l-13.27-13.65v-46.2l13.27-13.65h31.64l13.27,13.65v46.2Zm69.41,0l-13.27,13.65h-30.11l-13.27-13.65,1.02-5.25v-46.2l-2.55-8.4h25.01l-2.55,8.4v41.48l2.04,4.2,4.08,2.1h4.08l4.08-2.1,2.04-4.2v-41.48l-2.55-8.4h23.48l-2.55,8.4v46.2l1.02,5.25Zm51.55,13.65l-7.65-23.62-2.04-1.05h-5.61l-1.02,1.05v15.23l2.55,8.4h-24.5l2.55-8.4v-56.7l-2.55-8.4h44.4l13.27,13.65v20.48l-9.19,9.45,7.14,19.95,5.62,9.98h-22.97Zm115.34-65.1v65.1h-13.78l-22.46-38.85-2.04-5.25,.51,5.25v30.45l2.55,8.4h-22.46l2.55-8.4v-56.7l-3.06-8.4h21.95l17.86,30.98,2.04,5.25-.51-5.25v-22.58l-2.55-8.4h21.95l-2.55,8.4Zm60.22,65.1h-44.4l2.55-8.4v-56.7l-2.55-8.4h42.87l6.43,19.95-8.98-3.15h-17.56l-.82,1.05v7.35l1.02,1.05h6.64l7.66-2.62v22.05l-7.66-2.62h-6.64l-1.02,1.05v9.98l1.53,1.57h17.15l10.72-3.67-6.94,21.52Zm92.89-65.1l-18.37,65.1h-12.25l-10.72-38.33-.51-3.67-.51,3.67-10.72,38.33h-12.25l-18.37-65.1-4.08-8.4h24.5l-1.02,8.4,6.12,23.1,.51,4.2,.51-4.2,8.68-31.5h15.31l8.68,31.5,.51,4.2,.51-4.2,6.12-23.1-1.02-8.4h22.46l-4.08,8.4Zm30.11,17.33l15.82,3.67,9.7,9.98v20.48l-13.27,13.65h-30.11l-6.94-21.52,10.72,3.67h14.6l3.06-1.57,1.53-3.15v-4.2l-2.55-2.62-15.82-3.68-9.19-9.45v-17.33l13.27-13.65h28.58l6.43,19.95-8.78-3.15h-14.49l-3.06,1.58-1.53,3.15v2.1l2.04,2.1Zm79.11,47.77h-41.85l2.55-8.4v-56.7l-2.55-8.4h25.52l-3.06,9.45v44.62l1.53,1.57h14.29l10.51-3.67-6.94,21.52Zm55.63,0h-44.4l2.55-8.4v-56.7l-2.55-8.4h42.87l6.43,19.95-8.98-3.15h-17.56l-.82,1.05v7.35l1.02,1.05h6.64l7.66-2.62v22.05l-7.66-2.62h-6.64l-1.02,1.05v9.98l1.53,1.57h17.15l10.72-3.67-6.94,21.52Zm112.08-56.17h-7.96l-1.02,1.05v44.1l3.57,11.02h-27.05l3.57-11.02v-44.1l-1.02-1.05h-7.96l-10.25,3.55,.04,.13-.2-.07-.2,.07,.04-.13-10.25-3.55h-7.96l-1.02,1.05v44.1l3.57,11.02h-27.05l3.57-11.02v-44.1l-1.02-1.05h-7.96l-10.62,3.67,6.84-21h45.42l6.63,20.37,6.63-20.37h45.42l6.84,21-10.62-3.67Zm60.43,56.17h-44.4l2.55-8.4v-56.7l-2.55-8.4h42.87l6.43,19.95-8.98-3.15h-17.56l-.82,1.05v7.35l1.02,1.05h6.64l7.66-2.62v22.05l-7.66-2.62h-6.64l-1.02,1.05v9.98l1.53,1.57h17.15l10.72-3.67-6.94,21.52Zm52.06,0l-7.66-23.62-2.04-1.05h-5.61l-1.02,1.05v15.23l2.55,8.4h-24.5l2.55-8.4v-56.7l-2.55-8.4h44.4l13.27,13.65v20.48l-9.19,9.45,7.15,19.95,5.61,9.98h-22.97Zm53.08-4.73l-4.59,4.73h-11.23l-4.59-4.73v-9.45l4.59-4.73h11.23l4.59,4.73v9.45Zm-5.61-18.9h-9.19l-5.61-23.1v-22.57l4.08-4.2h12.25l4.08,4.2v22.57l-5.61,23.1Z"/>
</svg>