<?xml version="1.0" encoding="UTF-8"?>
<svg id="images" xmlns="http://www.w3.org/2000/svg" viewBox="0 0 381.4 47.9">
  <defs>
    <style>
      .cls-1 {
        fill: #60cfc7;
      }
    </style>
  </defs>
  <path class="cls-1" d="M47,11.3L.1,23v-3.1l1,.5h1l18.4-4.6,3.1-1.5,2-2,.5-1-.5-1h-1l-1,.5-.5,1,.5,1h-1l-1-1v-1.5l2-2h3.1l1.5,1.5v2.8l-3.6,2.3,18.4-4.6h6.1v1.5l-2.1-.5h0Zm1,24.5h-1l-18.4,4.6-3.1,1.5-2,2-.5,1,.5,1h1l1-.5,.5-1-.5-1h1l1,1v1.5l-2,2h-3.1l-1.5-1.5v-2.8l3.6-2.3-18.4,4.6H0v-1.5l2,.5,46.9-11.7v3.1l-.9-.5h0ZM13.7,26.4l-2.2,.6-.2,.3v9.9l.8,2.3-6.1,1.5,.8-2.7v-9.9l-.2-.1-2.2,.6-2.3,1.4,1.4-5,11.2-2.8,1.5,4.3-2.5-.4h0Zm11.8,9.8l.6-2v-4.7l-.3-.2-3.1,.8-.2,.3v4.7l.6,1.7-5.5,1.4,.6-2v-12.8l-.6-1.7,5.5-1.4-.6,2v3.6l.2,.2,3.2-.8,.2-.2v-3.6l-.6-1.7,5.5-1.4-.6,2v12.8l.6,1.7-5.5,1.3h0Zm18.8-4.7l-10.2,2.5,.6-2v-12.8l-.6-1.7,9.9-2.4,1.4,4.1-2-.2-4.2,1.1-.2,.2v1.6l.2,.2,1.8-.5,1.7-1v4.9l-1.6-.1-1.8,.5-.2,.3v2.3l.2,.2,4.2-1,2.5-1.5-1.7,5.3h0Z"/>
  <path class="cls-1" d="M84.3,18.5h-7.2l-1.5,.8-.8,1.5v1l1,1,7.9,1.8,4.8,4.8v9.9l-6.6,6.6h-15l-3.5-10.5,5.3,1.8h7.3l1.5-.8,.8-1.5v-2l-1.3-1.3-7.9-1.8-4.6-4.4v-8.4l6.6-6.6h14.3l3.2,9.7-4.3-1.6h0Z"/>
  <path class="cls-1" d="M111.7,46l.5-4.1-.8-3.1-.5-.5h-8.4l-.5,.5-.8,3.1,.5,4.1h-11.6l2-4.1,7.1-28.3-.8-3.3h17.3l-.8,3.3,7.1,28.3,2,4.1c.2,0-12.3,0-12.3,0Zm-4.7-26.8l-.3-1.8-.2,1.8-2.6,11,.5,.5h4.6l.5-.5-2.5-11Z"/>
  <path class="cls-1" d="M149.5,14.4l-8.9,17.8v8.4l1.8,5.3h-13.3l1.8-5.3v-7.9l-9.2-18.3-2.8-4.1h12.5l.5,3.6,3.8,7.7,.5,1.5,.5-1.5,3.8-7.7,.5-3.6h11.2l-2.7,4.1h0Z"/>
  <path class="cls-1" d="M184.5,18.5h-7.2l-1.5,.8-.8,1.5v1l1,1,7.9,1.8,4.8,4.8v9.9l-6.6,6.6h-15l-3.5-10.5,5.4,1.8h7.3l1.5-.8,.8-1.5v-2l-1.3-1.3-7.9-1.8-4.6-4.6v-8.4l6.6-6.6h14.3l3.2,9.7-4.4-1.4h0Z"/>
  <path class="cls-1" d="M194.7,46l1.2-3.6V17.4l-1.2-3.6h11.5l-1.2,3.6v25l1.2,3.6h-11.5Zm3.7-35.7l-1.5-.8,4.1-8.2,2.6-1.3,2.6,2.6-7.8,7.7h0Z"/>
  <path class="cls-1" d="M253,14.4v22.4l.5,2.5-6.6,6.6h-15l-6.6-6.6,.5-2.5V14.4l-1.3-4.1h12.5l-1.3,4.1v20.1l1,2,2,1h2l2-1,1-2V14.4l-1.3-4.1h11.7l-1.1,4.1h0Z"/>
  <path class="cls-1" d="M288.9,14.4v31.6h-6.8l-11.2-18.9-1-2.5,.2,2.5v14.8l1.3,4.1h-11.3l1.3-4.1V14.4l-1.5-4.1h11l8.9,15,1,2.6-.2-2.6V14.3l-1.3-4.1h11l-1.4,4.2h0Z"/>
  <path class="cls-1" d="M296.9,46l1.3-4.1V14.4l-1.3-4.1h12.5l-1.3,4.1v27.5l1.3,4.1h-12.5Z"/>
  <path class="cls-1" d="M338.2,46h-15.8l-6.6-6.6V17l6.6-6.6h15.8l6.6,6.6v22.4l-6.6,6.6Zm-3.6-24.7l-1-2-2-1h-2.5l-2,1-1,2v13.3l1,2,2,1h2.5l2-1,1-2v-13.3Z"/>
  <path class="cls-1" d="M380,14.4v31.6h-6.9l-11.2-18.9-1-2.5,.3,2.5v14.8l1.3,4.1h-11.2l1.3-4.1V14.4l-1.5-4.1h11l8.9,15,1,2.6-.3-2.6V14.3l-1.3-4.1h11l-1.4,4.2h0Z"/>
</svg>